<svg width="50" height="50" viewBox="0 0 50 50" fill="none" xmlns="http://www.w3.org/2000/svg">
<mask id="path-1-inside-1_256_436" fill="white">
<path fill-rule="evenodd" clip-rule="evenodd" d="M33.9091 27.8C37.0184 25.2321 39 21.3475 39 17C39 9.26801 32.732 3 25 3C17.268 3 11 9.26801 11 17C11 21.3475 12.9816 25.2321 16.0909 27.8V36.0908H33.9091V27.8Z"/>
</mask>
<path d="M33.9091 27.8L32.6355 26.2579L31.9091 26.8578V27.8H33.9091ZM16.0909 27.8H18.0909V26.8578L17.3645 26.2579L16.0909 27.8ZM16.0909 36.0908H14.0909V38.0908H16.0909V36.0908ZM33.9091 36.0908V38.0908H35.9091V36.0908H33.9091ZM37 17C37 20.7257 35.3045 24.0537 32.6355 26.2579L35.1826 29.342C38.7323 26.4106 41 21.9693 41 17H37ZM25 5C31.6274 5 37 10.3726 37 17H41C41 8.16344 33.8366 1 25 1V5ZM13 17C13 10.3726 18.3726 5 25 5V1C16.1634 1 9 8.16344 9 17H13ZM17.3645 26.2579C14.6955 24.0537 13 20.7257 13 17H9C9 21.9693 11.2677 26.4106 14.8174 29.342L17.3645 26.2579ZM18.0909 36.0908V27.8H14.0909V36.0908H18.0909ZM33.9091 34.0908H16.0909V38.0908H33.9091V34.0908ZM31.9091 27.8V36.0908H35.9091V27.8H31.9091Z" fill="white" mask="url(#path-1-inside-1_256_436)"/>
<path d="M16.0908 40.9092H33.909" stroke="white" stroke-width="2"/>
<path d="M16.0908 45.7273H33.909" stroke="white" stroke-width="2"/>
<circle cx="24.9998" cy="19.2728" r="2.81818" stroke="white" stroke-width="2"/>
<path d="M25 22.0909V35.4546" stroke="white" stroke-width="2"/>
</svg>
