<svg width="40" height="40" viewBox="0 0 40 40" fill="none" xmlns="http://www.w3.org/2000/svg">
<path fill-rule="evenodd" clip-rule="evenodd" d="M19.9999 28.2736C19.1739 28.2739 18.349 28.21 17.5329 28.0824L12.5496 31.5772C12.4966 31.6143 12.4336 31.6343 12.3689 31.6344C12.3042 31.6345 12.2411 31.6148 12.188 31.5778C12.1349 31.5409 12.0944 31.4885 12.0721 31.4279C12.0497 31.3672 12.0465 31.3011 12.0629 31.2385L13.2471 26.7254C9.72982 24.9594 7.39575 21.8549 7.39575 18.3195C7.39575 12.822 13.039 8.36548 19.9999 8.36548C26.9609 8.36548 32.6041 12.822 32.6041 18.3195C32.6041 23.817 26.9609 28.2736 19.9999 28.2736ZM18.2113 16.0081C18.1445 15.8304 18.0252 15.6773 17.8692 15.5693C17.7131 15.4612 17.5278 15.4033 17.338 15.4033C17.1483 15.4033 16.963 15.4612 16.8069 15.5693C16.6509 15.6773 16.5315 15.8304 16.4648 16.0081L14.6666 20.8196C14.6131 20.968 14.6203 21.1314 14.6866 21.2744C14.7528 21.4175 14.8728 21.5286 15.0205 21.5838C15.1681 21.639 15.3316 21.6338 15.4755 21.5692C15.6193 21.5047 15.7319 21.386 15.7888 21.239L16.0759 20.3723H18.4861C18.5232 20.3723 18.5602 20.3686 18.5965 20.3612L18.8873 21.239C18.9139 21.3139 18.9552 21.3827 19.0087 21.4415C19.0621 21.5003 19.1268 21.5478 19.1988 21.5814C19.2709 21.6149 19.3489 21.6338 19.4283 21.6369C19.5077 21.64 19.5869 21.6272 19.6614 21.5994C19.7358 21.5716 19.804 21.5292 19.8619 21.4748C19.9198 21.4204 19.9663 21.355 19.9987 21.2824C20.031 21.2098 20.0487 21.1315 20.0505 21.0521C20.0523 20.9726 20.0383 20.8936 20.0093 20.8196L18.2113 16.0081ZM16.6062 19.2921L17.4587 16.7187L18.3113 19.2921H16.6062ZM15.2673 15.5869C15.3797 15.6992 15.4428 15.8516 15.4428 16.0104C15.4428 16.1692 15.3797 16.3215 15.2675 16.4339C15.1553 16.5462 15.003 16.6094 14.8442 16.6095H13.6134V21.029C13.6134 21.1879 13.5503 21.3402 13.438 21.4526C13.3256 21.5649 13.1733 21.628 13.0144 21.628C12.8556 21.628 12.7032 21.5649 12.5909 21.4526C12.4786 21.3402 12.4154 21.1879 12.4154 21.029V16.6095H11.1853C11.0264 16.6095 10.874 16.5464 10.7616 16.4341C10.6493 16.3217 10.5862 16.1693 10.5862 16.0104C10.5862 15.8516 10.6493 15.6992 10.7616 15.5868C10.874 15.4745 11.0264 15.4114 11.1853 15.4114H14.8438C15.0027 15.4114 15.155 15.4745 15.2673 15.5869ZM23.5326 20.3785H21.831V16.0106C21.831 15.8517 21.7679 15.6994 21.6556 15.5871C21.5433 15.4747 21.3909 15.4116 21.232 15.4116C21.0732 15.4116 20.9208 15.4747 20.8085 15.5871C20.6962 15.6994 20.6331 15.8517 20.6331 16.0106V20.8549C20.6332 21.0463 20.7093 21.2298 20.8446 21.3652C20.98 21.5005 21.1635 21.5766 21.3549 21.5768H23.5326C23.6915 21.5768 23.8438 21.5137 23.9561 21.4013C24.0685 21.289 24.1316 21.1367 24.1316 20.9778C24.1316 20.8189 24.0685 20.6666 23.9561 20.5542C23.8438 20.4419 23.6915 20.3788 23.5326 20.3788V20.3785ZM28.9029 16.4667L27.1293 18.1808L29.0166 20.5995C29.1185 20.7301 29.1643 20.8957 29.144 21.0601C29.1237 21.2244 29.039 21.374 28.9084 21.4758C28.7778 21.5777 28.6122 21.6235 28.4478 21.6032C28.2835 21.5829 28.134 21.4982 28.0321 21.3676L26.2761 19.0055L25.8703 19.3978V21.0292C25.8703 21.197 25.8036 21.358 25.6849 21.4766C25.5663 21.5953 25.4053 21.662 25.2375 21.662C25.0697 21.662 24.9087 21.5953 24.7901 21.4766C24.6714 21.358 24.6047 21.197 24.6047 21.0292V16.0104C24.6047 15.8426 24.6714 15.6817 24.7901 15.563C24.9087 15.4444 25.0697 15.3777 25.2375 15.3777C25.4053 15.3777 25.5663 15.4444 25.6849 15.563C25.8036 15.6817 25.8703 15.8426 25.8703 16.0104V17.9175L28.0819 15.6175C28.1948 15.5104 28.3455 15.4523 28.501 15.4558C28.6566 15.4592 28.8045 15.5238 28.9127 15.6357C29.0208 15.7476 29.0805 15.8976 29.0787 16.0532C29.0768 16.2088 29.0137 16.3574 28.9029 16.4667Z" fill="white"/>
</svg>
