<svg width="187" height="46" viewBox="0 0 187 46" fill="none" xmlns="http://www.w3.org/2000/svg">
<path d="M0 24.3065C0 20.4872 1.15013 17.5039 3.4516 15.3581C5.75187 13.2146 8.86816 12.1399 12.8017 12.1399C14.6429 12.1399 16.3783 12.5073 18.0103 13.2409C19.6424 13.9744 21.1266 15.1303 22.4655 16.7071L18.157 21.6072C17.1799 20.5826 16.2942 19.8573 15.4998 19.4267C14.7054 18.9985 13.7643 18.7838 12.6755 18.7838C11.9785 18.8113 11.3018 18.9568 10.6468 19.2192C9.99186 19.4828 9.41259 19.8621 8.91143 20.3607C8.40907 20.8319 8.00406 21.4056 7.6988 22.0831C7.39114 22.7618 7.23851 23.5026 7.23851 24.3041C7.23851 25.9931 7.79615 27.3422 8.91263 28.3525C10.0267 29.364 11.3114 29.8686 12.7608 29.8686C13.9326 29.8686 14.9433 29.6193 15.7942 29.1207C16.6439 28.6233 17.4876 27.9315 18.3252 27.0452L22.5928 31.9035C21.337 33.5376 19.8587 34.7138 18.1582 35.433C16.4564 36.1523 14.6705 36.5125 12.8029 36.5125C8.95469 36.5399 5.85883 35.5308 3.5153 33.4816C1.17177 31.4347 0 28.3764 0 24.3065Z" fill="white"/>
<path d="M38.0701 12.7639V19.6154H37.4007C36.5366 19.6154 35.6713 19.7394 34.8072 19.9887C33.9431 20.238 33.1343 20.6257 32.3808 21.1505V35.8077H24.9355V12.9727H32.3808V14.633C33.1343 14.0521 33.8938 13.6227 34.6618 13.3448C35.4274 13.0693 36.3143 12.8748 37.3178 12.7639H38.0713H38.0701Z" fill="white"/>
<path d="M39.0732 24.5143C39.0732 22.6047 39.3509 20.8882 39.9097 19.3662C40.4673 17.8442 41.2485 16.5416 42.2532 15.4633C43.2567 14.4125 44.4634 13.5954 45.8719 13.0133C47.2792 12.4324 48.8343 12.1414 50.5361 12.1414C52.2379 12.1414 53.805 12.4467 55.1595 13.055C56.5115 13.6646 57.6617 14.5222 58.6111 15.6291C59.5305 16.7086 60.2431 18.0171 60.7443 19.5523C61.2467 21.0886 61.4978 22.7705 61.4978 24.5978L61.3308 26.8809H46.2288C46.3129 27.9615 46.7997 28.7774 47.6938 29.3309C48.5856 29.8855 49.6312 30.1623 50.8306 30.1623C51.9194 30.1623 52.8592 29.9535 53.6548 29.5384C54.4492 29.1233 55.1823 28.5007 55.8517 27.6705L60.5796 31.7392C59.3238 33.4282 57.8599 34.6663 56.187 35.4559C54.5129 36.2444 52.6309 36.6392 50.5397 36.6392C48.838 36.6392 47.2828 36.3625 45.8755 35.809C44.467 35.2556 43.2459 34.4528 42.2148 33.4007C41.1836 32.3487 40.388 31.0748 39.8304 29.5814C39.2715 28.0856 39.0216 26.399 39.0768 24.5155L39.0732 24.5143ZM54.4264 21.3176C54.2593 20.3765 53.805 19.6715 53.0659 19.2004C52.3268 18.7292 51.4976 18.4942 50.577 18.4942C49.517 18.4942 48.624 18.7435 47.8993 19.2421C47.1734 19.7395 46.7552 20.4326 46.6434 21.3176H54.4252H54.4264Z" fill="white"/>
<path d="M77.017 36.1405C75.8175 36.1405 74.6878 35.9329 73.6278 35.5178C72.5678 35.1027 71.7025 34.5219 71.0343 33.7752V41H63.8379V12.9726H71.0343V15.0075C71.6196 14.3431 72.4489 13.7897 73.5233 13.346C74.5965 12.9034 75.8308 12.6553 77.2261 12.5993C78.7319 12.5718 80.1332 12.814 81.43 13.3257C82.7268 13.8386 83.8625 14.5924 84.8395 15.5896C85.7866 16.6142 86.5329 17.8798 87.0773 19.3887C87.6205 20.8976 87.9066 22.6212 87.9342 24.5571C87.9618 26.579 87.6974 28.3216 87.1398 29.79C86.581 31.2571 85.8154 32.4619 84.8395 33.4018C83.836 34.3429 82.6643 35.0359 81.3254 35.4773C79.9866 35.9198 78.5505 36.1417 77.017 36.1417V36.1405ZM75.8031 29.7888C76.416 29.8449 77.0302 29.7816 77.6443 29.6015C78.2572 29.4214 78.8016 29.1232 79.2764 28.7081C79.7775 28.293 80.1753 27.7264 80.4686 27.006C80.7606 26.2867 80.9072 25.4017 80.9072 24.3484C80.9072 23.4085 80.7606 22.5986 80.4686 21.9199C80.1753 21.2423 79.8064 20.6817 79.3593 20.2392C78.9134 19.7967 78.4038 19.471 77.833 19.2635C77.2609 19.0559 76.6961 18.9521 76.1384 18.9521C74.7167 18.9521 73.5521 19.5068 72.646 20.6137C71.7398 21.7207 71.2855 23.1878 71.2855 25.0152C71.2855 26.2342 71.711 27.3125 72.5618 28.2537C73.4115 29.1948 74.4919 29.7065 75.8043 29.79L75.8031 29.7888Z" fill="white"/>
<path d="M89.9014 24.5143C89.9014 22.6047 90.179 20.8882 90.7378 19.3662C91.2955 17.8442 92.0766 16.5416 93.0814 15.4633C94.0849 14.4125 95.2915 13.5954 96.7 13.0133C98.1073 12.4324 99.6625 12.1414 101.364 12.1414C103.066 12.1414 104.633 12.4467 105.988 13.055C107.34 13.6646 108.49 14.5222 109.439 15.6291C110.359 16.7086 111.071 18.0171 111.572 19.5523C112.075 21.0886 112.326 22.7705 112.326 24.5978L112.159 26.8809H97.0569C97.1411 27.9615 97.6278 28.7774 98.522 29.3309C99.4137 29.8855 100.459 30.1623 101.659 30.1623C102.748 30.1623 103.687 29.9535 104.483 29.5384C105.277 29.1233 106.01 28.5007 106.68 27.6705L111.408 31.7392C110.152 33.4282 108.688 34.6663 107.015 35.4559C105.341 36.2444 103.459 36.6392 101.368 36.6392C99.6661 36.6392 98.1109 36.3625 96.7036 35.809C95.2951 35.2556 94.074 34.4528 93.0429 33.4007C92.0117 32.3487 91.2161 31.0748 90.6585 29.5814C90.0997 28.0856 89.8497 26.399 89.905 24.5155L89.9014 24.5143ZM105.254 21.3176C105.087 20.3765 104.633 19.6715 103.894 19.2004C103.155 18.7292 102.326 18.4942 101.405 18.4942C100.345 18.4942 99.4522 18.7435 98.7275 19.2421C98.0016 19.7395 97.5833 20.4326 97.4716 21.3176H105.253H105.254Z" fill="white"/>
<path d="M114.668 35.809V5H121.989V14.051C122.491 13.6359 123.216 13.2697 124.165 12.9501C125.113 12.6328 126.09 12.4312 127.093 12.3477H127.638C130.426 12.3477 132.553 13.2483 134.017 15.047C135.482 16.847 136.214 19.1157 136.214 21.8567V35.8078H128.894V24.5549C128.894 22.4245 128.587 21.0051 127.973 20.2989C127.359 19.594 126.523 19.2815 125.464 19.365C124.738 19.4473 124.089 19.6214 123.518 19.8838C122.946 20.1474 122.438 20.5136 121.992 20.9848V35.8078H114.67L114.668 35.809Z" fill="white"/>
<path d="M159.933 12.9727V35.809H152.612V34.4802C152.082 34.9227 151.384 35.3247 150.521 35.6838C149.657 36.044 148.722 36.2647 147.718 36.3482H147.174C144.357 36.3482 142.306 35.5323 141.024 33.8981C139.742 32.2652 139.099 30.0788 139.099 27.3377V12.9715H146.42V24.2233C146.42 26.3274 146.698 27.711 147.257 28.3754C147.814 29.0398 148.511 29.3571 149.348 29.3297C150.072 29.3297 150.686 29.2199 151.189 28.9981C151.691 28.7774 152.165 28.4172 152.611 27.9174V12.9703H159.932L159.933 12.9727Z" fill="white"/>
<path d="M176.08 36.1406C174.881 36.1406 173.751 35.933 172.691 35.518C171.631 35.1029 170.766 34.522 170.098 33.7753V35.8102H162.901V5H170.098V15.0888C170.683 14.4244 171.512 13.8506 172.587 13.3663C173.66 12.8821 174.894 12.6125 176.29 12.5552C177.795 12.5004 179.197 12.721 180.493 13.2196C181.79 13.717 182.926 14.4792 183.903 15.5027C184.85 16.5273 185.596 17.8012 186.141 19.322C186.684 20.8452 186.97 22.5748 186.998 24.5119C187.025 26.5325 186.761 28.2764 186.203 29.7436C185.644 31.2119 184.879 32.4155 183.903 33.3566C182.9 34.3251 181.728 35.0313 180.389 35.4738C179.05 35.9163 177.614 36.1382 176.08 36.1382V36.1406ZM174.7 29.7889C175.34 29.845 175.975 29.7889 176.603 29.6231C177.231 29.4573 177.795 29.1519 178.298 28.7094C178.799 28.2669 179.203 27.686 179.51 26.9667C179.817 26.2475 179.971 25.3612 179.971 24.3091C179.971 23.368 179.824 22.5593 179.532 21.8806C179.239 21.2031 178.87 20.6425 178.423 20.1999C177.948 19.7848 177.434 19.4664 176.876 19.2445C176.317 19.0238 175.76 18.9117 175.202 18.9117C173.78 18.9117 172.616 19.4592 171.709 20.5518C170.803 21.6468 170.349 23.1056 170.349 24.933C170.349 26.2355 170.725 27.3484 171.479 28.2752C172.232 29.2032 173.304 29.7078 174.7 29.7913V29.7889Z" fill="white"/>
</svg>
